<svg xmlns="http://www.w3.org/2000/svg" viewBox="0 0 2936 416" role="img" aria-labelledby="title"><title id="title">LateDiagnosed.org</title><path d="M2472 273L2467 275L2462 279L2459 284L2458 289L2462 300L2466 304L2471 306L2477 306L2486 302L2488 300L2491 294L2492 289L2488 279L2485 276L2478 273ZM2744 164L2737 164L2735 163L2734 164L2724 165L2713 171L2698 185L2697 184L2697 166L2678 166L2678 303L2697 303L2697 296L2698 295L2698 242L2697 241L2697 229L2698 228L2698 217L2701 205L2706 196L2715 188L2725 184L2744 181L2745 180L2745 165ZM2571 163L2556 167L2544 173L2536 179L2526 190L2522 196L2515 212L2513 220L2513 226L2512 227L2512 241L2513 242L2513 248L2514 249L2515 257L2522 274L2539 292L2546 297L2557 302L2565 304L2570 304L2571 305L2576 305L2577 306L2587 306L2588 305L2598 304L2609 301L2622 294L2634 283L2641 273L2647 261L2650 252L2650 248L2652 242L2652 220L2647 202L2642 193L2632 182L2618 171L2599 164L2594 164L2593 163ZM2575 180L2594 181L2607 185L2613 189L2619 196L2628 211L2632 225L2632 233L2633 234L2633 240L2632 241L2632 246L2630 254L2627 261L2620 270L2605 283L2599 286L2586 289L2567 286L2552 280L2545 274L2541 268L2532 249L2532 230L2531 229L2531 224L2534 217L2534 214L2539 203L2544 196L2553 188L2560 184ZM2894 166L2876 166L2876 187L2875 188L2860 174L2846 166L2835 163L2828 163L2827 162L2808 164L2797 168L2784 176L2773 187L2767 196L2761 209L2758 221L2758 246L2761 259L2767 272L2771 278L2783 290L2797 298L2807 301L2811 301L2812 302L2833 302L2845 299L2856 294L2867 286L2874 278L2876 283L2877 300L2876 301L2876 310L2872 325L2867 334L2859 342L2846 349L2839 351L2832 351L2831 352L2824 352L2823 351L2817 351L2810 349L2800 344L2793 338L2787 329L2784 322L2767 322L2766 323L2767 324L2767 329L2772 342L2783 354L2789 358L2806 365L2816 366L2817 367L2837 367L2838 366L2843 366L2857 362L2867 357L2873 353L2884 341L2890 329L2893 318L2894 296L2895 295L2895 286L2894 285L2894 236L2895 235ZM2818 180L2836 180L2846 183L2856 189L2864 197L2870 206L2874 216L2875 224L2876 225L2876 243L2870 261L2866 267L2857 276L2844 283L2836 285L2817 285L2816 284L2812 284L2806 282L2796 276L2785 264L2781 256L2778 246L2777 227L2778 226L2779 217L2785 203L2789 197L2800 187L2810 182ZM981 130L979 133L979 296L980 297L980 303L1041 303L1042 302L1042 284L1043 283L1043 217L1042 216L1042 161L1043 160L1043 144L1042 143L1041 132L1040 130ZM212 154L204 166L197 183L196 191L195 192L195 198L194 199L194 206L193 207L193 220L194 221L195 241L200 259L208 274L221 289L238 300L258 306L281 306L293 303L308 295L318 284L320 285L321 302L324 303L328 303L329 304L338 304L339 303L343 303L344 304L373 304L374 303L381 303L382 302L382 261L383 260L383 238L382 237L382 153L383 152L383 148L382 147L382 135L380 130L321 130L319 148L318 149L307 138L294 130L284 127L256 127L255 128L247 129L232 136L225 141ZM284 180L294 180L301 182L306 185L315 194L318 200L321 212L320 226L317 234L308 245L299 250L295 251L280 251L269 246L261 237L258 231L256 223L256 209L260 197L268 187L274 183ZM2104 129L2088 135L2076 142L2059 157L2051 168L2044 183L2041 195L2040 205L2039 206L2039 227L2040 228L2044 249L2052 266L2060 277L2068 285L2075 290L2099 302L2110 305L2117 305L2118 306L2146 306L2147 305L2154 305L2168 301L2185 292L2194 285L2207 271L2217 254L2213 251L2158 244L2156 247L2145 255L2139 257L2126 257L2117 254L2107 246L2103 239L2102 231L2103 230L2223 229L2223 206L2222 205L2220 187L2217 178L2212 168L2205 158L2191 145L2174 135L2161 130L2149 127L2144 127L2143 126L2119 126L2118 127ZM2103 194L2107 186L2117 177L2125 174L2137 174L2144 176L2149 179L2158 189L2160 193L2160 196L2159 197L2104 197ZM1923 129L1914 132L1898 141L1888 151L1884 157L1878 173L1878 192L1881 202L1887 212L1895 220L1901 224L1911 229L1925 234L1961 242L1971 248L1971 257L1962 263L1948 263L1938 258L1924 245L1882 265L1880 265L1873 269L1872 271L1884 285L1895 293L1910 300L1924 304L1935 305L1936 306L1966 306L1967 305L1985 303L1995 300L2011 291L2020 282L2026 272L2030 257L2030 243L2027 231L2022 222L2012 212L2006 208L1996 203L1984 199L1971 197L1960 193L1947 190L1943 188L1939 184L1937 178L1945 171L1958 170L1966 173L1979 185L1982 185L2027 163L2027 160L2022 152L2010 141L1999 135L1985 130L1972 128L1971 127L1964 127L1963 126L1934 127L1933 128ZM1736 132L1723 138L1707 149L1693 164L1685 178L1681 189L1680 199L1679 200L1679 232L1680 233L1681 242L1686 256L1695 271L1704 281L1727 297L1738 302L1751 305L1758 305L1759 306L1786 306L1787 305L1800 304L1815 299L1826 293L1834 287L1846 275L1855 262L1861 249L1867 225L1867 205L1866 204L1864 190L1860 179L1850 162L1839 150L1827 141L1811 133L1799 129L1791 128L1790 127L1784 127L1783 126L1760 126ZM1765 181L1780 181L1791 186L1799 194L1805 208L1805 225L1798 238L1789 247L1783 250L1775 252L1766 251L1753 245L1744 237L1740 225L1740 207L1745 195L1751 188L1757 184ZM1648 147L1635 135L1625 130L1608 126L1586 127L1575 130L1563 137L1547 151L1544 150L1544 131L1543 130L1485 130L1483 129L1482 130L1482 141L1481 142L1481 301L1484 303L1488 303L1489 304L1523 304L1524 303L1541 303L1543 302L1544 300L1544 284L1545 283L1545 264L1544 263L1544 203L1548 192L1558 183L1566 180L1579 180L1587 183L1593 188L1598 197L1599 201L1599 219L1600 220L1600 303L1661 303L1661 272L1662 271L1662 199L1661 198L1661 184L1660 183L1660 177L1656 162ZM1329 127L1325 129L1319 130L1307 136L1295 145L1282 161L1274 177L1269 198L1269 230L1270 231L1271 242L1278 262L1284 271L1301 288L1315 296L1330 300L1354 301L1357 299L1361 299L1372 296L1381 291L1390 283L1391 284L1391 302L1392 303L1388 312L1382 319L1376 323L1366 326L1355 326L1342 323L1335 320L1322 310L1317 309L1276 340L1276 341L1286 351L1299 360L1309 365L1331 372L1336 372L1337 373L1344 373L1345 374L1383 374L1384 373L1395 372L1414 365L1431 353L1443 338L1447 331L1452 318L1455 305L1455 297L1456 296L1456 136L1454 130L1393 130L1392 131L1392 146L1390 149L1382 139L1367 130L1352 126ZM1360 179L1366 179L1373 181L1381 186L1386 191L1393 204L1393 225L1388 234L1376 245L1372 247L1354 248L1343 242L1335 233L1331 222L1331 209L1333 202L1338 193L1349 183ZM1083 151L1075 162L1069 174L1066 183L1064 198L1063 199L1063 237L1067 254L1073 267L1081 279L1092 290L1102 297L1110 301L1128 306L1150 306L1158 304L1170 298L1187 285L1189 286L1189 301L1192 303L1196 304L1230 304L1231 303L1247 303L1250 301L1250 131L1249 130L1189 130L1188 131L1188 148L1186 149L1177 139L1164 131L1146 126L1124 127L1113 130L1104 134L1091 143ZM1149 181L1162 180L1177 187L1185 196L1189 206L1190 221L1188 229L1185 235L1176 245L1165 251L1148 251L1142 248L1130 237L1125 227L1124 210L1131 194L1140 185ZM601 129L589 133L571 143L554 159L548 168L540 185L536 202L535 220L536 221L537 236L540 244L540 247L546 261L556 276L568 288L578 295L586 299L601 304L616 305L617 306L641 306L642 305L649 305L663 301L674 296L687 287L702 271L709 260L711 254L708 251L679 248L678 247L661 245L655 243L645 252L638 256L634 257L621 257L610 252L602 244L599 237L598 231L599 230L716 230L718 224L718 204L716 199L716 194L712 179L707 168L695 152L682 141L665 132L652 128L630 127L629 126L617 126L616 127L610 127L609 128ZM599 195L601 190L608 181L612 178L622 174L634 174L640 176L650 184L655 194L654 197L600 197ZM423 82L422 92L421 93L421 128L420 129L398 130L398 177L402 180L420 181L422 183L423 255L427 270L434 282L443 291L459 299L462 299L469 302L481 303L482 304L500 304L501 303L519 302L522 298L522 286L523 285L523 264L522 263L521 253L520 251L499 251L494 249L487 243L485 240L485 213L486 212L486 181L487 180L521 180L521 135L522 131L521 130L488 130L485 128L484 85L481 81ZM739 65L738 302L744 304L765 304L766 303L825 303L826 304L842 304L843 303L861 301L882 296L900 288L915 278L932 261L938 253L946 239L954 217L956 203L957 202L957 192L958 191L957 167L956 166L956 161L953 148L948 134L941 120L929 103L918 92L899 79L886 73L870 68L854 66L853 65ZM807 124L838 124L858 129L867 134L879 146L886 158L890 170L891 184L892 185L890 203L887 212L880 224L870 234L860 240L841 245L807 245L804 243L804 126ZM2423 63L2363 63L2362 64L2361 144L2359 148L2348 138L2334 130L2323 127L2302 126L2284 131L2274 136L2264 143L2252 155L2247 162L2240 176L2233 204L2233 227L2235 233L2235 238L2240 257L2247 271L2256 283L2262 289L2273 297L2286 303L2294 305L2301 305L2302 306L2327 305L2342 299L2360 284L2361 285L2362 300L2364 303L2407 303L2408 304L2416 304L2423 302ZM2322 180L2335 180L2347 186L2357 197L2362 209L2362 216L2363 218L2362 219L2362 225L2359 233L2348 245L2338 251L2326 252L2316 249L2311 246L2303 238L2297 227L2296 210L2298 202L2304 192L2311 185ZM40 66L40 302L46 304L71 304L72 303L177 304L183 302L185 300L185 286L184 285L184 257L185 253L183 251L177 249L163 249L162 250L111 250L105 248L105 67L103 65L91 64L90 63L43 64ZM1002 42L989 48L981 57L978 64L975 76L976 83L979 92L986 102L993 107L1001 110L1021 110L1027 108L1035 103L1043 93L1046 84L1046 68L1041 56L1032 47L1024 43L1016 42L1015 41Z" fill="#ffffff" fill-rule="evenodd"/></svg>